<?xml version="1.0" encoding="UTF-8" standalone="no"?>
<!DOCTYPE svg PUBLIC "-//W3C//DTD SVG 1.1//EN" "http://www.w3.org/Graphics/SVG/1.1/DTD/svg11.dtd">
<svg xmlns="http://www.w3.org/2000/svg" version="1.1" viewBox="0.00 0.00 1024.00 1024.00">
<g stroke-width="2.00" fill="none" stroke-linecap="butt">
<path stroke="#8f9f9b" vector-effect="non-scaling-stroke" d="
  M 293.33 295.22
  C 266.78 317.15 250.06 346.43 249.98 381.00
  Q 249.69 504.38 250.03 669.25
  Q 250.06 682.92 250.76 689.22
  Q 254.77 724.98 278.60 752.68
  C 297.94 775.16 328.64 791.99 358.50 791.97
  C 461.84 791.90 567.13 792.29 672.00 791.88
  Q 678.06 791.86 683.93 790.68
  Q 708.24 785.81 725.57 773.59
  Q 740.76 762.88 751.68 749.17
  Q 776.76 717.74 776.74 676.24
  Q 776.69 534.04 776.81 390.62
  Q 776.82 378.47 776.06 371.27
  C 772.96 341.84 758.29 316.83 735.51 296.89
  Q 725.76 288.35 710.99 281.20
  Q 690.72 271.38 671.80 270.87
  Q 656.93 270.47 638.83 270.48
  Q 504.94 270.60 366.47 270.42
  Q 354.33 270.40 346.56 271.56
  Q 316.54 276.05 293.33 295.22"
/>
<path stroke="#8f9f9b" vector-effect="non-scaling-stroke" d="
  M 325.64 738.73
  C 337.26 747.20 351.13 749.81 365.20 749.80
  Q 517.94 749.63 664.41 749.80
  Q 671.33 749.80 677.13 748.49
  Q 698.68 743.60 713.78 727.46
  Q 720.17 720.63 723.72 714.59
  Q 730.90 702.37 733.85 686.19
  C 734.15 684.57 734.20 682.29 734.20 680.62
  Q 734.38 525.10 734.02 382.09
  Q 733.97 361.24 722.24 344.57
  C 711.01 328.63 693.86 316.38 674.22 313.80
  Q 669.32 313.15 655.52 313.17
  Q 509.74 313.36 364.05 313.16
  Q 354.48 313.15 347.47 314.63
  C 333.89 317.51 320.20 325.02 310.98 336.00
  C 304.82 343.34 298.50 351.74 295.94 360.64
  Q 292.23 373.54 292.19 388.25
  Q 291.90 493.44 292.19 588.76
  C 292.27 617.02 291.94 645.27 292.10 673.76
  Q 292.30 708.47 316.67 731.23
  Q 321.33 735.59 325.64 738.73"
/>
<path stroke="#ddeae0" vector-effect="non-scaling-stroke" d="
  M 379.66 440.17
  Q 380.65 441.08 382.41 440.89
  Q 384.88 440.61 385.12 440.61
  Q 452.97 440.71 522.13 440.90"
/>
<path stroke="#8f9f9b" vector-effect="non-scaling-stroke" d="
  M 522.13 440.90
  C 501.72 460.76 482.73 480.16 462.78 499.40
  C 450.72 511.03 438.85 522.91 426.85 534.84
  Q 404.94 556.63 383.15 576.98
  Q 374.10 585.44 370.58 589.74
  C 359.35 603.44 353.87 620.03 354.80 638.05
  C 355.94 660.35 372.20 683.17 393.23 691.44"
/>
<path stroke="#ddeae0" vector-effect="non-scaling-stroke" d="
  M 393.23 691.44
  Q 393.51 692.48 394.99 692.76
  Q 395.35 692.83 395.39 693.19
  Q 395.41 693.42 395.63 693.50
  Q 398.56 694.61 401.02 695.61
  C 401.95 695.99 402.75 695.83 403.67 696.35
  Q 404.56 696.85 405.54 697.09
  Q 408.50 697.81 411.63 698.65
  C 423.93 701.92 435.62 701.95 449.25 701.68
  Q 458.96 701.48 468.75 701.49
  Q 503.40 701.52 538.06 701.30
  Q 546.10 701.24 554.88 701.41
  C 566.88 701.63 579.36 701.22 591.33 701.31
  Q 600.86 701.37 611.00 701.20
  Q 619.29 701.07 627.41 698.48
  Q 636.06 695.72 644.67 691.95
  Q 646.59 691.11 648.28 689.91
  Q 650.30 688.47 652.45 687.33
  Q 652.55 687.29 652.59 687.38
  Q 652.72 687.65 653.08 687.54
  A 0.25 0.17 11.6 0 0 653.18 687.50
  Q 654.68 686.65 655.34 685.29
  Q 655.57 684.84 655.99 684.55
  Q 659.02 682.51 660.89 680.48
  Q 661.80 679.48 662.87 679.11
  Q 663.26 678.98 663.55 678.68
  Q 664.93 677.18 665.97 675.39
  Q 666.93 673.75 668.14 672.09
  Q 673.14 665.22 674.67 656.82"
/>
<path stroke="#8f9f9b" vector-effect="non-scaling-stroke" d="
  M 674.67 656.82
  Q 678.11 645.47 673.65 635.79
  C 670.27 628.45 663.75 623.24 655.76 623.29
  C 648.34 623.33 642.21 626.73 638.84 633.18
  C 635.16 640.24 631.21 646.94 623.42 648.99
  Q 620.35 649.80 608.14 649.71
  Q 573.47 649.47 537.98 649.52"
/>
<path stroke="#ddeae0" vector-effect="non-scaling-stroke" d="
  M 537.98 649.52
  Q 544.97 642.53 551.39 636.07
  Q 558.07 629.36 564.94 622.76
  Q 585.60 602.91 606.70 582.46
  Q 610.75 578.54 615.13 574.39
  Q 631.57 558.82 648.11 542.37
  Q 665.10 525.46 671.21 502.27
  Q 674.74 488.89 673.34 470.47"
/>
<path stroke="#8f9f9b" vector-effect="non-scaling-stroke" d="
  M 673.34 470.47
  Q 677.90 455.96 677.92 440.63
  Q 677.93 430.17 675.60 421.54
  C 668.51 395.23 649.42 377.47 622.13 372.71
  Q 617.15 371.84 610.80 372.64
  Q 595.70 374.56 584.96 380.93
  C 576.99 385.65 569.96 392.45 563.58 399.07
  Q 555.55 407.39 548.30 414.99"
/>
<path stroke="#ddeae0" vector-effect="non-scaling-stroke" d="
  M 548.30 414.99
  Q 537.38 413.98 530.50 414.47
  Q 529.23 414.56 529.14 413.82"
/>
<path stroke="#8f9f9b" vector-effect="non-scaling-stroke" d="
  M 529.14 413.82
  L 575.55 369.80
  Q 576.07 369.31 575.36 369.31
  Q 496.35 369.11 417.00 369.61
  Q 404.08 369.70 400.49 370.26
  C 380.85 373.34 363.74 384.26 354.18 401.93
  C 348.37 412.69 346.62 427.24 355.34 436.66
  Q 365.76 447.92 379.66 440.17"
/>
<path stroke="#739098" vector-effect="non-scaling-stroke" d="
  M 529.14 413.82
  Q 472.50 413.48 416.12 413.47
  Q 401.46 413.47 393.07 424.30
  Q 391.99 425.69 388.68 431.43
  Q 386.20 435.71 379.66 440.17"
/>
<path stroke="#739098" vector-effect="non-scaling-stroke" d="
  M 673.34 470.47
  Q 669.01 481.66 662.93 489.68
  C 655.48 499.51 648.83 505.61 637.29 516.72
  Q 602.49 550.19 567.54 583.65
  Q 560.53 590.38 553.21 597.60
  C 536.34 614.27 517.47 631.75 500.00 649.22
  Q 499.65 649.57 500.15 649.57
  L 537.98 649.52"
/>
<path stroke="#739098" vector-effect="non-scaling-stroke" d="
  M 674.67 656.82
  Q 671.63 666.62 663.07 676.31
  Q 650.47 690.58 633.24 693.32
  Q 626.42 694.40 619.50 694.40
  Q 511.85 694.38 407.75 694.32
  Q 403.17 694.32 393.23 691.44"
/>
<path stroke="#739098" vector-effect="non-scaling-stroke" d="
  M 522.13 440.90
  L 548.30 414.99"
/>
<path stroke="#8f9f9b" vector-effect="non-scaling-stroke" d="
  M 474.93 550.40
  Q 461.40 563.74 447.62 576.87
  Q 427.81 595.75 408.01 614.75
  Q 404.47 618.14 402.00 622.17
  Q 399.65 625.99 399.47 631.76
  C 399.18 641.11 406.43 648.50 415.21 650.08
  C 427.57 652.31 436.30 647.65 445.14 639.41
  C 503.53 585.02 559.52 530.22 617.61 472.60
  Q 621.03 469.20 624.22 465.79"
/>
<path stroke="#739098" vector-effect="non-scaling-stroke" d="
  M 624.22 465.79
  Q 631.16 458.71 633.21 449.44
  Q 636.46 434.70 625.46 425.26
  Q 617.74 418.63 609.15 421.48
  Q 605.57 422.66 597.73 430.45
  C 572.36 455.67 546.23 480.59 520.40 505.65
  Q 508.90 516.80 498.35 527.51
  C 490.56 535.43 482.79 542.81 474.93 550.40"
/>
<path stroke="#ddeae0" vector-effect="non-scaling-stroke" d="
  M 624.22 465.79
  Q 625.73 460.09 625.91 456.37
  C 626.10 452.41 624.89 446.73 621.75 443.91
  Q 616.24 438.97 609.91 438.49
  C 599.81 437.71 594.05 441.61 586.77 448.89
  C 581.81 453.85 576.22 458.67 571.09 463.69
  Q 561.99 472.60 549.39 483.84
  Q 539.65 492.53 524.17 507.65
  C 519.54 512.16 514.43 516.26 509.76 520.96
  Q 503.12 527.65 494.77 534.94
  C 493.97 535.65 492.92 536.02 492.16 536.74
  Q 488.58 540.15 484.99 543.59
  Q 484.71 543.86 484.38 544.07
  Q 483.92 544.36 483.41 544.39
  Q 483.24 544.40 483.20 544.56
  Q 483.17 544.71 483.23 544.83
  Q 483.52 545.50 482.81 545.35
  Q 482.02 545.18 481.85 545.95
  A 0.55 0.54 13.0 0 1 481.19 546.36
  Q 480.64 546.24 480.45 546.75
  Q 480.28 547.21 479.86 547.46
  L 474.93 550.40"
/>
</g>
<path fill="#f9f8e3" d="
  M 0.00 0.00
  L 1024.00 0.00
  L 1024.00 1024.00
  L 0.00 1024.00
  L 0.00 0.00
  Z
  M 293.33 295.22
  C 266.78 317.15 250.06 346.43 249.98 381.00
  Q 249.69 504.38 250.03 669.25
  Q 250.06 682.92 250.76 689.22
  Q 254.77 724.98 278.60 752.68
  C 297.94 775.16 328.64 791.99 358.50 791.97
  C 461.84 791.90 567.13 792.29 672.00 791.88
  Q 678.06 791.86 683.93 790.68
  Q 708.24 785.81 725.57 773.59
  Q 740.76 762.88 751.68 749.17
  Q 776.76 717.74 776.74 676.24
  Q 776.69 534.04 776.81 390.62
  Q 776.82 378.47 776.06 371.27
  C 772.96 341.84 758.29 316.83 735.51 296.89
  Q 725.76 288.35 710.99 281.20
  Q 690.72 271.38 671.80 270.87
  Q 656.93 270.47 638.83 270.48
  Q 504.94 270.60 366.47 270.42
  Q 354.33 270.40 346.56 271.56
  Q 316.54 276.05 293.33 295.22
  Z"
/>
<path fill="#254553" d="
  M 249.98 381.00
  C 250.06 346.43 266.78 317.15 293.33 295.22
  Q 316.54 276.05 346.56 271.56
  Q 354.33 270.40 366.47 270.42
  Q 504.94 270.60 638.83 270.48
  Q 656.93 270.47 671.80 270.87
  Q 690.72 271.38 710.99 281.20
  Q 725.76 288.35 735.51 296.89
  C 758.29 316.83 772.96 341.84 776.06 371.27
  Q 776.82 378.47 776.81 390.62
  Q 776.69 534.04 776.74 676.24
  Q 776.76 717.74 751.68 749.17
  Q 740.76 762.88 725.57 773.59
  Q 708.24 785.81 683.93 790.68
  Q 678.06 791.86 672.00 791.88
  C 567.13 792.29 461.84 791.90 358.50 791.97
  C 328.64 791.99 297.94 775.16 278.60 752.68
  Q 254.77 724.98 250.76 689.22
  Q 250.06 682.92 250.03 669.25
  Q 249.69 504.38 249.98 381.00
  Z
  M 325.64 738.73
  C 337.26 747.20 351.13 749.81 365.20 749.80
  Q 517.94 749.63 664.41 749.80
  Q 671.33 749.80 677.13 748.49
  Q 698.68 743.60 713.78 727.46
  Q 720.17 720.63 723.72 714.59
  Q 730.90 702.37 733.85 686.19
  C 734.15 684.57 734.20 682.29 734.20 680.62
  Q 734.38 525.10 734.02 382.09
  Q 733.97 361.24 722.24 344.57
  C 711.01 328.63 693.86 316.38 674.22 313.80
  Q 669.32 313.15 655.52 313.17
  Q 509.74 313.36 364.05 313.16
  Q 354.48 313.15 347.47 314.63
  C 333.89 317.51 320.20 325.02 310.98 336.00
  C 304.82 343.34 298.50 351.74 295.94 360.64
  Q 292.23 373.54 292.19 388.25
  Q 291.90 493.44 292.19 588.76
  C 292.27 617.02 291.94 645.27 292.10 673.76
  Q 292.30 708.47 316.67 731.23
  Q 321.33 735.59 325.64 738.73
  Z"
/>
<path fill="#f9f8e3" d="
  M 365.20 749.80
  C 351.13 749.81 337.26 747.20 325.64 738.73
  Q 321.33 735.59 316.67 731.23
  Q 292.30 708.47 292.10 673.76
  C 291.94 645.27 292.27 617.02 292.19 588.76
  Q 291.90 493.44 292.19 388.25
  Q 292.23 373.54 295.94 360.64
  C 298.50 351.74 304.82 343.34 310.98 336.00
  C 320.20 325.02 333.89 317.51 347.47 314.63
  Q 354.48 313.15 364.05 313.16
  Q 509.74 313.36 655.52 313.17
  Q 669.32 313.15 674.22 313.80
  C 693.86 316.38 711.01 328.63 722.24 344.57
  Q 733.97 361.24 734.02 382.09
  Q 734.38 525.10 734.20 680.62
  C 734.20 682.29 734.15 684.57 733.85 686.19
  Q 730.90 702.37 723.72 714.59
  Q 720.17 720.63 713.78 727.46
  Q 698.68 743.60 677.13 748.49
  Q 671.33 749.80 664.41 749.80
  Q 517.94 749.63 365.20 749.80
  Z
  M 379.66 440.17
  Q 380.65 441.08 382.41 440.89
  Q 384.88 440.61 385.12 440.61
  Q 452.97 440.71 522.13 440.90
  C 501.72 460.76 482.73 480.16 462.78 499.40
  C 450.72 511.03 438.85 522.91 426.85 534.84
  Q 404.94 556.63 383.15 576.98
  Q 374.10 585.44 370.58 589.74
  C 359.35 603.44 353.87 620.03 354.80 638.05
  C 355.94 660.35 372.20 683.17 393.23 691.44
  Q 393.51 692.48 394.99 692.76
  Q 395.35 692.83 395.39 693.19
  Q 395.41 693.42 395.63 693.50
  Q 398.56 694.61 401.02 695.61
  C 401.95 695.99 402.75 695.83 403.67 696.35
  Q 404.56 696.85 405.54 697.09
  Q 408.50 697.81 411.63 698.65
  C 423.93 701.92 435.62 701.95 449.25 701.68
  Q 458.96 701.48 468.75 701.49
  Q 503.40 701.52 538.06 701.30
  Q 546.10 701.24 554.88 701.41
  C 566.88 701.63 579.36 701.22 591.33 701.31
  Q 600.86 701.37 611.00 701.20
  Q 619.29 701.07 627.41 698.48
  Q 636.06 695.72 644.67 691.95
  Q 646.59 691.11 648.28 689.91
  Q 650.30 688.47 652.45 687.33
  Q 652.55 687.29 652.59 687.38
  Q 652.72 687.65 653.08 687.54
  A 0.25 0.17 11.6 0 0 653.18 687.50
  Q 654.68 686.65 655.34 685.29
  Q 655.57 684.84 655.99 684.55
  Q 659.02 682.51 660.89 680.48
  Q 661.80 679.48 662.87 679.11
  Q 663.26 678.98 663.55 678.68
  Q 664.93 677.18 665.97 675.39
  Q 666.93 673.75 668.14 672.09
  Q 673.14 665.22 674.67 656.82
  Q 678.11 645.47 673.65 635.79
  C 670.27 628.45 663.75 623.24 655.76 623.29
  C 648.34 623.33 642.21 626.73 638.84 633.18
  C 635.16 640.24 631.21 646.94 623.42 648.99
  Q 620.35 649.80 608.14 649.71
  Q 573.47 649.47 537.98 649.52
  Q 544.97 642.53 551.39 636.07
  Q 558.07 629.36 564.94 622.76
  Q 585.60 602.91 606.70 582.46
  Q 610.75 578.54 615.13 574.39
  Q 631.57 558.82 648.11 542.37
  Q 665.10 525.46 671.21 502.27
  Q 674.74 488.89 673.34 470.47
  Q 677.90 455.96 677.92 440.63
  Q 677.93 430.17 675.60 421.54
  C 668.51 395.23 649.42 377.47 622.13 372.71
  Q 617.15 371.84 610.80 372.64
  Q 595.70 374.56 584.96 380.93
  C 576.99 385.65 569.96 392.45 563.58 399.07
  Q 555.55 407.39 548.30 414.99
  Q 537.38 413.98 530.50 414.47
  Q 529.23 414.56 529.14 413.82
  L 575.55 369.80
  Q 576.07 369.31 575.36 369.31
  Q 496.35 369.11 417.00 369.61
  Q 404.08 369.70 400.49 370.26
  C 380.85 373.34 363.74 384.26 354.18 401.93
  C 348.37 412.69 346.62 427.24 355.34 436.66
  Q 365.76 447.92 379.66 440.17
  Z"
/>
<path fill="#254553" d="
  M 529.14 413.82
  Q 472.50 413.48 416.12 413.47
  Q 401.46 413.47 393.07 424.30
  Q 391.99 425.69 388.68 431.43
  Q 386.20 435.71 379.66 440.17
  Q 365.76 447.92 355.34 436.66
  C 346.62 427.24 348.37 412.69 354.18 401.93
  C 363.74 384.26 380.85 373.34 400.49 370.26
  Q 404.08 369.70 417.00 369.61
  Q 496.35 369.11 575.36 369.31
  Q 576.07 369.31 575.55 369.80
  L 529.14 413.82
  Z"
/>
<path fill="#254553" d="
  M 673.34 470.47
  Q 669.01 481.66 662.93 489.68
  C 655.48 499.51 648.83 505.61 637.29 516.72
  Q 602.49 550.19 567.54 583.65
  Q 560.53 590.38 553.21 597.60
  C 536.34 614.27 517.47 631.75 500.00 649.22
  Q 499.65 649.57 500.15 649.57
  L 537.98 649.52
  Q 573.47 649.47 608.14 649.71
  Q 620.35 649.80 623.42 648.99
  C 631.21 646.94 635.16 640.24 638.84 633.18
  C 642.21 626.73 648.34 623.33 655.76 623.29
  C 663.75 623.24 670.27 628.45 673.65 635.79
  Q 678.11 645.47 674.67 656.82
  Q 671.63 666.62 663.07 676.31
  Q 650.47 690.58 633.24 693.32
  Q 626.42 694.40 619.50 694.40
  Q 511.85 694.38 407.75 694.32
  Q 403.17 694.32 393.23 691.44
  C 372.20 683.17 355.94 660.35 354.80 638.05
  C 353.87 620.03 359.35 603.44 370.58 589.74
  Q 374.10 585.44 383.15 576.98
  Q 404.94 556.63 426.85 534.84
  C 438.85 522.91 450.72 511.03 462.78 499.40
  C 482.73 480.16 501.72 460.76 522.13 440.90
  L 548.30 414.99
  Q 555.55 407.39 563.58 399.07
  C 569.96 392.45 576.99 385.65 584.96 380.93
  Q 595.70 374.56 610.80 372.64
  Q 617.15 371.84 622.13 372.71
  C 649.42 377.47 668.51 395.23 675.60 421.54
  Q 677.93 430.17 677.92 440.63
  Q 677.90 455.96 673.34 470.47
  Z
  M 474.93 550.40
  Q 461.40 563.74 447.62 576.87
  Q 427.81 595.75 408.01 614.75
  Q 404.47 618.14 402.00 622.17
  Q 399.65 625.99 399.47 631.76
  C 399.18 641.11 406.43 648.50 415.21 650.08
  C 427.57 652.31 436.30 647.65 445.14 639.41
  C 503.53 585.02 559.52 530.22 617.61 472.60
  Q 621.03 469.20 624.22 465.79
  Q 631.16 458.71 633.21 449.44
  Q 636.46 434.70 625.46 425.26
  Q 617.74 418.63 609.15 421.48
  Q 605.57 422.66 597.73 430.45
  C 572.36 455.67 546.23 480.59 520.40 505.65
  Q 508.90 516.80 498.35 527.51
  C 490.56 535.43 482.79 542.81 474.93 550.40
  Z"
/>
<path fill="#c1dbdd" d="
  M 529.14 413.82
  Q 529.23 414.56 530.50 414.47
  Q 537.38 413.98 548.30 414.99
  L 522.13 440.90
  Q 452.97 440.71 385.12 440.61
  Q 384.88 440.61 382.41 440.89
  Q 380.65 441.08 379.66 440.17
  Q 386.20 435.71 388.68 431.43
  Q 391.99 425.69 393.07 424.30
  Q 401.46 413.47 416.12 413.47
  Q 472.50 413.48 529.14 413.82
  Z"
/>
<path fill="#c1dbdd" d="
  M 624.22 465.79
  Q 625.73 460.09 625.91 456.37
  C 626.10 452.41 624.89 446.73 621.75 443.91
  Q 616.24 438.97 609.91 438.49
  C 599.81 437.71 594.05 441.61 586.77 448.89
  C 581.81 453.85 576.22 458.67 571.09 463.69
  Q 561.99 472.60 549.39 483.84
  Q 539.65 492.53 524.17 507.65
  C 519.54 512.16 514.43 516.26 509.76 520.96
  Q 503.12 527.65 494.77 534.94
  C 493.97 535.65 492.92 536.02 492.16 536.74
  Q 488.58 540.15 484.99 543.59
  Q 484.71 543.86 484.38 544.07
  Q 483.92 544.36 483.41 544.39
  Q 483.24 544.40 483.20 544.56
  Q 483.17 544.71 483.23 544.83
  Q 483.52 545.50 482.81 545.35
  Q 482.02 545.18 481.85 545.95
  A 0.55 0.54 13.0 0 1 481.19 546.36
  Q 480.64 546.24 480.45 546.75
  Q 480.28 547.21 479.86 547.46
  L 474.93 550.40
  C 482.79 542.81 490.56 535.43 498.35 527.51
  Q 508.90 516.80 520.40 505.65
  C 546.23 480.59 572.36 455.67 597.73 430.45
  Q 605.57 422.66 609.15 421.48
  Q 617.74 418.63 625.46 425.26
  Q 636.46 434.70 633.21 449.44
  Q 631.16 458.71 624.22 465.79
  Z"
/>
<path fill="#f9f8e3" d="
  M 624.22 465.79
  Q 621.03 469.20 617.61 472.60
  C 559.52 530.22 503.53 585.02 445.14 639.41
  C 436.30 647.65 427.57 652.31 415.21 650.08
  C 406.43 648.50 399.18 641.11 399.47 631.76
  Q 399.65 625.99 402.00 622.17
  Q 404.47 618.14 408.01 614.75
  Q 427.81 595.75 447.62 576.87
  Q 461.40 563.74 474.93 550.40
  L 479.86 547.46
  Q 480.28 547.21 480.45 546.75
  Q 480.64 546.24 481.19 546.36
  A 0.55 0.54 13.0 0 0 481.85 545.95
  Q 482.02 545.18 482.81 545.35
  Q 483.52 545.50 483.23 544.83
  Q 483.17 544.71 483.20 544.56
  Q 483.24 544.40 483.41 544.39
  Q 483.92 544.36 484.38 544.07
  Q 484.71 543.86 484.99 543.59
  Q 488.58 540.15 492.16 536.74
  C 492.92 536.02 493.97 535.65 494.77 534.94
  Q 503.12 527.65 509.76 520.96
  C 514.43 516.26 519.54 512.16 524.17 507.65
  Q 539.65 492.53 549.39 483.84
  Q 561.99 472.60 571.09 463.69
  C 576.22 458.67 581.81 453.85 586.77 448.89
  C 594.05 441.61 599.81 437.71 609.91 438.49
  Q 616.24 438.97 621.75 443.91
  C 624.89 446.73 626.10 452.41 625.91 456.37
  Q 625.73 460.09 624.22 465.79
  Z"
/>
<path fill="#c1dbdd" d="
  M 673.34 470.47
  Q 674.74 488.89 671.21 502.27
  Q 665.10 525.46 648.11 542.37
  Q 631.57 558.82 615.13 574.39
  Q 610.75 578.54 606.70 582.46
  Q 585.60 602.91 564.94 622.76
  Q 558.07 629.36 551.39 636.07
  Q 544.97 642.53 537.98 649.52
  L 500.15 649.57
  Q 499.65 649.57 500.00 649.22
  C 517.47 631.75 536.34 614.27 553.21 597.60
  Q 560.53 590.38 567.54 583.65
  Q 602.49 550.19 637.29 516.72
  C 648.83 505.61 655.48 499.51 662.93 489.68
  Q 669.01 481.66 673.34 470.47
  Z"
/>
<path fill="#c1dbdd" d="
  M 674.67 656.82
  Q 673.14 665.22 668.14 672.09
  Q 666.93 673.75 665.97 675.39
  Q 664.93 677.18 663.55 678.68
  Q 663.26 678.98 662.87 679.11
  Q 661.80 679.48 660.89 680.48
  Q 659.02 682.51 655.99 684.55
  Q 655.57 684.84 655.34 685.29
  Q 654.68 686.65 653.18 687.50
  A 0.25 0.17 11.6 0 1 653.08 687.54
  Q 652.72 687.65 652.59 687.38
  Q 652.55 687.29 652.45 687.33
  Q 650.30 688.47 648.28 689.91
  Q 646.59 691.11 644.67 691.95
  Q 636.06 695.72 627.41 698.48
  Q 619.29 701.07 611.00 701.20
  Q 600.86 701.37 591.33 701.31
  C 579.36 701.22 566.88 701.63 554.88 701.41
  Q 546.10 701.24 538.06 701.30
  Q 503.40 701.52 468.75 701.49
  Q 458.96 701.48 449.25 701.68
  C 435.62 701.95 423.93 701.92 411.63 698.65
  Q 408.50 697.81 405.54 697.09
  Q 404.56 696.85 403.67 696.35
  C 402.75 695.83 401.95 695.99 401.02 695.61
  Q 398.56 694.61 395.63 693.50
  Q 395.41 693.42 395.39 693.19
  Q 395.35 692.83 394.99 692.76
  Q 393.51 692.48 393.23 691.44
  Q 403.17 694.32 407.75 694.32
  Q 511.85 694.38 619.50 694.40
  Q 626.42 694.40 633.24 693.32
  Q 650.47 690.58 663.07 676.31
  Q 671.63 666.62 674.67 656.82
  Z"
/>
</svg>
